<svg xmlns="http://www.w3.org/2000/svg" width="146" height="39" viewBox="0 0 146 39">
  <defs>
    <style>
      .cls-1 {
        fill: #a3bbc8;
        fill-rule: evenodd;
      }

      .cls-2 {
        font-size: 36px;
        fill: #436372;
        font-family: Rubik;
        font-weight: 500;
      }
    </style>
  </defs>
  <g id="Монтажная_область_1" data-name="Монтажная область 1">
    <path id="Path_324" data-name="Path 324" class="cls-1" d="M444.157,79.674a1.128,1.128,0,0,0,.622.387l48.041,9.8a1.137,1.137,0,0,0,.908-0.212,0.874,0.874,0,0,0,.31-0.8h0l-6.251-37.079a0.962,0.962,0,0,0-.449-0.645,1.337,1.337,0,0,0-.965-0.051l-35.194,14.05a0.9,0.9,0,0,0-.507.452c-0.171.325-6.494,13.076-6.582,13.257A0.806,0.806,0,0,0,444.157,79.674Zm45.586,6.436-20.05-11.145,10.339-2.159Zm-37.7-18.883,12.522,6.983-17.833,3.715Zm1.662-1.172L485.24,53.468l-5.558,17.587L467.31,73.639ZM491.363,85.05l-9.779-13.4,4.9-15.52Zm-3.886,1.9-38.051-7.761,17.523-3.65Z" transform="translate(-444 -51)"/>
    <text id="Glee." class="cls-2" x="62" y="32">Glee.</text>
  </g>
</svg>
